<svg xmlns="http://www.w3.org/2000/svg" width="23" height="24" viewBox="0 0 23 24" fill="none">
<g id="New_Icon_For_LMS">
<path id="Vector" d="M14.3975 15.3432C14.1323 15.5759 13.7356 15.5759 13.4704 15.3432L10.2177 12.4887C10.1481 12.4271 10.0931 12.3541 10.0557 12.2738C10.0184 12.1935 9.99944 12.1076 10 12.0209V7.50075C10 7.08612 10.3361 6.75 10.7508 6.75C11.1654 6.75 11.5015 7.08612 11.5015 7.50075V11.5729C11.5015 11.6859 11.5503 11.7934 11.6353 11.8679L14.3969 14.2863C14.7164 14.5661 14.7167 15.0631 14.3975 15.3432Z" fill="#DAD9DE"/>
<path id="Vector_2" d="M19 11.75C19 16.1683 15.4183 19.75 11 19.75C6.58172 19.75 3 16.1683 3 11.75C3 7.33172 6.58172 3.75 11 3.75C15.4183 3.75 19 7.33172 19 11.75Z" stroke="#DAD9DE" stroke-width="1.2" stroke-linecap="round"/>
</g>
</svg>