<svg xmlns="http://www.w3.org/2000/svg" width="24" height="24" viewBox="0 0 24 24" fill="none">
<path d="M19.0799 20.6328H4.91992C3.92617 20.6302 2.97388 20.2342 2.27119 19.5315C1.5685 18.8289 1.17256 17.8766 1.16992 16.8828V7.13281C1.16992 6.13825 1.56501 5.18442 2.26827 4.48116C2.97153 3.7779 3.92536 3.38281 4.91992 3.38281H19.0799C20.0745 3.38281 21.0283 3.7779 21.7316 4.48116C22.4348 5.18442 22.8299 6.13825 22.8299 7.13281V16.8828C22.8273 17.8766 22.4313 18.8289 21.7287 19.5315C21.026 20.2342 20.0737 20.6302 19.0799 20.6328ZM4.91992 4.88281C4.32318 4.88281 3.75089 5.11986 3.32893 5.54182C2.90698 5.96378 2.66992 6.53608 2.66992 7.13281V16.8828C2.66992 17.4795 2.90698 18.0518 3.32893 18.4738C3.75089 18.8958 4.32318 19.1328 4.91992 19.1328H19.0799C19.6767 19.1328 20.249 18.8958 20.6709 18.4738C21.0929 18.0518 21.3299 17.4795 21.3299 16.8828V7.13281C21.3299 6.53608 21.0929 5.96378 20.6709 5.54182C20.249 5.11986 19.6767 4.88281 19.0799 4.88281H4.91992Z" fill="#FAFAFA"/>
<path d="M5.59961 8.52344C5.40183 8.52344 5.20849 8.46479 5.04404 8.35491C4.87959 8.24503 4.75142 8.08885 4.67573 7.90612C4.60004 7.7234 4.58024 7.52233 4.61882 7.32835C4.65741 7.13437 4.75265 6.95618 4.8925 6.81633C5.03236 6.67648 5.21054 6.58124 5.40452 6.54265C5.5985 6.50407 5.79957 6.52387 5.98229 6.59956C6.16502 6.67525 6.3212 6.80342 6.43108 6.96787C6.54096 7.13232 6.59961 7.32566 6.59961 7.52344C6.59961 7.78865 6.49425 8.04301 6.30672 8.23054C6.11918 8.41808 5.86483 8.52344 5.59961 8.52344ZM5.59961 7.00344C5.47761 7.00344 5.36061 7.0519 5.27434 7.13817C5.18807 7.22444 5.13961 7.34144 5.13961 7.46344C5.13763 7.55722 5.16377 7.64944 5.21464 7.72825C5.26551 7.80705 5.33881 7.86883 5.42508 7.90564C5.51136 7.94245 5.60668 7.95259 5.69877 7.93478C5.79086 7.91696 5.87552 7.872 5.94185 7.80567C6.00817 7.73935 6.05314 7.65469 6.07095 7.5626C6.08877 7.47051 6.07862 7.37519 6.04181 7.28891C6.00501 7.20263 5.94323 7.12934 5.86442 7.07847C5.78561 7.02759 5.69339 7.00146 5.59961 7.00344Z" fill="#FAFAFA"/>
<path d="M9.48047 8.52344C9.28269 8.52344 9.08935 8.46479 8.9249 8.35491C8.76045 8.24503 8.63228 8.08885 8.55659 7.90612C8.4809 7.7234 8.4611 7.52233 8.49968 7.32835C8.53827 7.13437 8.63351 6.95618 8.77336 6.81633C8.91321 6.67648 9.0914 6.58124 9.28538 6.54265C9.47936 6.50407 9.68043 6.52387 9.86315 6.59956C10.0459 6.67525 10.2021 6.80342 10.3119 6.96787C10.4218 7.13232 10.4805 7.32566 10.4805 7.52344C10.4805 7.78865 10.3751 8.04301 10.1876 8.23054C10 8.41808 9.74569 8.52344 9.48047 8.52344ZM9.48047 7.02344C9.41805 7.01925 9.35544 7.02812 9.29664 7.04949C9.23784 7.07085 9.18415 7.10425 9.13898 7.14753C9.09381 7.19082 9.05816 7.24305 9.03431 7.30088C9.01047 7.35872 8.99894 7.4209 9.00047 7.48344C9.00047 7.60544 9.04893 7.72244 9.1352 7.80871C9.22147 7.89497 9.33847 7.94344 9.46047 7.94344C9.58167 7.94089 9.69719 7.8916 9.78291 7.80588C9.86863 7.72016 9.91792 7.60464 9.92047 7.48344C9.92315 7.42302 9.9139 7.36266 9.89323 7.30582C9.87256 7.24898 9.84088 7.19677 9.80001 7.15219C9.75915 7.10761 9.70989 7.07152 9.65505 7.04599C9.60022 7.02047 9.5409 7.00601 9.48047 7.00344V7.02344Z" fill="#FAFAFA"/>
<path d="M13.3496 8.52344C13.1518 8.52344 12.9585 8.46479 12.794 8.35491C12.6296 8.24503 12.5014 8.08885 12.4257 7.90612C12.35 7.7234 12.3302 7.52233 12.3688 7.32835C12.4074 7.13437 12.5026 6.95618 12.6425 6.81633C12.7824 6.67648 12.9605 6.58124 13.1545 6.54265C13.3485 6.50407 13.5496 6.52387 13.7323 6.59956C13.915 6.67525 14.0712 6.80342 14.1811 6.96787C14.291 7.13232 14.3496 7.32566 14.3496 7.52344C14.3496 7.78865 14.2443 8.04301 14.0567 8.23054C13.8692 8.41808 13.6148 8.52344 13.3496 8.52344ZM13.3496 7.02344C13.2276 7.02344 13.1106 7.0719 13.0243 7.15817C12.9381 7.24444 12.8896 7.36144 12.8896 7.48344C12.8916 7.57636 12.9211 7.66661 12.9744 7.74277C13.0277 7.81893 13.1024 7.87758 13.189 7.9113C13.2756 7.94503 13.3702 7.95232 13.461 7.93224C13.5518 7.91217 13.6345 7.86564 13.6988 7.79853C13.7631 7.73142 13.8061 7.64675 13.8223 7.55523C13.8385 7.4637 13.8272 7.36943 13.7898 7.28433C13.7524 7.19922 13.6907 7.12712 13.6123 7.07712C13.534 7.02712 13.4425 7.00148 13.3496 7.00344V7.02344Z" fill="#FAFAFA"/>
<path d="M14.7506 16.4457C14.6521 16.4462 14.5544 16.4269 14.4634 16.3892C14.3724 16.3514 14.2899 16.2958 14.2206 16.2257C14.0802 16.0851 14.0013 15.8945 14.0013 15.6957C14.0013 15.4969 14.0802 15.3063 14.2206 15.1657L15.6806 13.7057L14.0606 12.0857C13.9897 12.0161 13.9332 11.9332 13.8943 11.8418C13.8554 11.7503 13.8349 11.6521 13.834 11.5528C13.8331 11.4534 13.8517 11.3548 13.8889 11.2627C13.9261 11.1705 13.981 11.0866 14.0506 11.0157C14.1202 10.9448 14.2031 10.8883 14.2945 10.8494C14.386 10.8105 14.4842 10.79 14.5836 10.7891C14.6829 10.7882 14.7815 10.8068 14.8736 10.844C14.9658 10.8811 15.0497 10.9361 15.1206 11.0057L17.2706 13.1557C17.4111 13.2963 17.49 13.4869 17.49 13.6857C17.49 13.8845 17.4111 14.0751 17.2706 14.2157L15.2706 16.2157C15.2045 16.2878 15.1241 16.3454 15.0347 16.385C14.9452 16.4246 14.8485 16.4453 14.7506 16.4457Z" fill="#FAFAFA"/>
<path d="M9.64973 16.4406C9.55119 16.4411 9.45355 16.4218 9.36254 16.3841C9.27153 16.3463 9.18898 16.2907 9.11973 16.2206L7.11973 14.2206C6.97928 14.08 6.90039 13.8893 6.90039 13.6906C6.90039 13.4918 6.97928 13.3012 7.11973 13.1606L9.27973 11.0006C9.42036 10.8601 9.61098 10.7812 9.80973 10.7812C10.0085 10.7812 10.1991 10.8601 10.3397 11.0006C10.4105 11.0695 10.4667 11.152 10.5051 11.243C10.5435 11.334 10.5633 11.4318 10.5633 11.5306C10.5633 11.6294 10.5435 11.7272 10.5051 11.8182C10.4667 11.9092 10.4105 11.9916 10.3397 12.0606L8.71973 13.7006L10.1797 15.1606C10.2505 15.2295 10.3067 15.312 10.3451 15.403C10.3835 15.494 10.4033 15.5918 10.4033 15.6906C10.4033 15.7894 10.3835 15.8872 10.3451 15.9782C10.3067 16.0692 10.2505 16.1516 10.1797 16.2206C10.1116 16.2921 10.0292 16.3486 9.93795 16.3865C9.84668 16.4244 9.74852 16.4428 9.64973 16.4406Z" fill="#FAFAFA"/>
</svg>