<svg xmlns="http://www.w3.org/2000/svg" width="24" height="10" viewBox="0 0 24 10" fill="none">
<path d="M1.81104 3.23004C1.76404 3.23004 1.75304 3.20704 1.77604 3.17104L2.02204 2.85604C2.04504 2.82104 2.10304 2.79804 2.15004 2.79804H6.32204C6.36804 2.79804 6.38004 2.83304 6.35704 2.86804L6.15804 3.17104C6.13504 3.20704 6.07604 3.24104 6.04104 3.24104L1.81104 3.23004ZM0.0470373 4.30504C3.72976e-05 4.30504 -0.0119627 4.28204 0.0120373 4.24704L0.257037 3.93104C0.280037 3.89604 0.339037 3.87304 0.386037 3.87304H5.71404C5.76104 3.87304 5.78404 3.90804 5.77204 3.94304L5.67904 4.22304C5.66704 4.27004 5.62104 4.29304 5.57404 4.29304L0.0470373 4.30504ZM2.87504 5.38004C2.82804 5.38004 2.81604 5.34504 2.84004 5.31004L3.00304 5.01804C3.02604 4.98304 3.07304 4.94804 3.12004 4.94804H5.45704C5.50404 4.94804 5.52704 4.98304 5.52704 5.03004L5.50404 5.31004C5.50404 5.35704 5.45704 5.39204 5.42204 5.39204L2.87504 5.38004ZM15.004 3.02004C14.268 3.20704 13.765 3.34704 13.041 3.53404C12.865 3.58004 12.854 3.59204 12.701 3.41704C12.527 3.21804 12.398 3.09004 12.153 2.97304C11.416 2.61104 10.703 2.71604 10.038 3.14804C9.24304 3.66204 8.83404 4.42204 8.84604 5.36804C8.85704 6.30304 9.50004 7.07404 10.423 7.20304C11.218 7.30804 11.883 7.02804 12.41 6.43304C12.515 6.30304 12.608 6.16304 12.725 5.99904H10.47C10.225 5.99904 10.166 5.84704 10.248 5.64904C10.4 5.28704 10.68 4.67904 10.844 4.37504C10.8691 4.31872 10.9101 4.27098 10.962 4.23774C11.0139 4.2045 11.0744 4.18722 11.136 4.18804H15.389C15.366 4.50404 15.366 4.81904 15.319 5.13504C15.198 5.96696 14.8684 6.75474 14.361 7.42504C13.52 8.53504 12.421 9.22504 11.031 9.41104C9.88604 9.56304 8.82204 9.34104 7.88804 8.64104C7.02304 7.98604 6.53204 7.12104 6.40404 6.04604C6.25204 4.77204 6.62604 3.62704 7.39704 2.62204C8.22704 1.53604 9.32504 0.846038 10.669 0.602038C11.767 0.402038 12.819 0.532037 13.765 1.17304C14.385 1.58304 14.828 2.14304 15.121 2.82104C15.191 2.92604 15.144 2.98504 15.004 3.02104M18.872 9.48204C17.808 9.45804 16.838 9.15404 16.02 8.45304C15.3395 7.87952 14.891 7.07799 14.758 6.19804C14.548 4.87804 14.91 3.70904 15.705 2.66904C16.558 1.54704 17.586 0.963037 18.977 0.719037C20.169 0.509037 21.291 0.624037 22.307 1.31404C23.23 1.94404 23.803 2.79804 23.955 3.91904C24.153 5.49704 23.698 6.78204 22.611 7.88104C21.84 8.66404 20.893 9.15404 19.806 9.37604C19.491 9.43604 19.176 9.44604 18.872 9.48204ZM21.652 4.76204C21.641 4.60904 21.641 4.49204 21.618 4.37504C21.408 3.21804 20.344 2.56504 19.234 2.82104C18.147 3.06604 17.446 3.75604 17.189 4.85404C16.979 5.76604 17.423 6.68904 18.264 7.06404C18.907 7.34404 19.549 7.30804 20.169 6.99404C21.092 6.51404 21.594 5.76604 21.653 4.76104L21.652 4.76204Z" fill="#FAFAFA"/>
</svg>