<svg xmlns="http://www.w3.org/2000/svg" width="61" height="60" viewBox="0 0 61 60" fill="none">
<path d="M54.0406 20.9403L31.5406 5.94028C31.2325 5.73471 30.8704 5.625 30.5 5.625C30.1296 5.625 29.7675 5.73471 29.4594 5.94028L6.95938 20.9403C6.70253 21.1116 6.49197 21.3438 6.34641 21.6161C6.20086 21.8884 6.1248 22.1924 6.125 22.5012V46.8762C6.125 47.8708 6.52009 48.8246 7.22335 49.5279C7.92661 50.2311 8.88044 50.6262 9.875 50.6262H51.125C52.1196 50.6262 53.0734 50.2311 53.7766 49.5279C54.4799 48.8246 54.875 47.8708 54.875 46.8762V22.5012C54.8752 22.1924 54.7991 21.8884 54.6536 21.6161C54.508 21.3438 54.2975 21.1116 54.0406 20.9403ZM23.1688 35.6262L9.875 45.0012V26.1411L23.1688 35.6262ZM27.0055 37.5012H33.9945L47.2672 46.8762H13.7328L27.0055 37.5012ZM37.8312 35.6262L51.125 26.1411V45.0012L37.8312 35.6262ZM30.5 9.75356L49.6977 22.5528L33.9945 33.7512H27.0102L11.307 22.5528L30.5 9.75356Z" fill="url(#paint0_linear_6182_26272)"/>
<defs>
<linearGradient id="paint0_linear_6182_26272" x1="11.7863" y1="-8.43789" x2="60.7691" y2="-5.3493" gradientUnits="userSpaceOnUse">
<stop stop-color="#D77BE6"/>
<stop offset="0.346875" stop-color="#BE63E6"/>
<stop offset="1" stop-color="#6C38CC"/>
</linearGradient>
</defs>
</svg>