<svg xmlns="http://www.w3.org/2000/svg" width="60" height="60" viewBox="0 0 60 60" fill="none">
<path d="M39.743 17.0101C38.0461 13.0373 35.0294 9.77237 31.203 7.7672C27.3766 5.76204 22.9752 5.13967 18.7428 6.00532C14.5104 6.87098 10.7068 9.17154 7.97501 12.5181C5.24319 15.8646 3.75074 20.0518 3.75 24.3718V39.8405C3.75 40.7108 4.0957 41.5454 4.71106 42.1607C5.32641 42.7761 6.16101 43.1218 7.03125 43.1218H20.3133C21.7764 46.4632 24.1808 49.3063 27.2328 51.304C30.2847 53.3018 33.8523 54.3677 37.5 54.3718H52.9688C53.839 54.3718 54.6736 54.0261 55.2889 53.4107C55.9043 52.7954 56.25 51.9608 56.25 51.0905V35.6218C56.2491 31.038 54.5692 26.6134 51.5277 23.1841C48.4862 19.7548 44.2938 17.5584 39.743 17.0101ZM7.5 24.3718C7.5 21.4051 8.37973 18.505 10.028 16.0382C11.6762 13.5715 14.0189 11.6489 16.7597 10.5136C19.5006 9.37829 22.5166 9.08124 25.4264 9.66002C28.3361 10.2388 31.0088 11.6674 33.1066 13.7652C35.2044 15.863 36.633 18.5357 37.2118 21.4454C37.7906 24.3552 37.4935 27.3712 36.3582 30.112C35.2229 32.8529 33.3003 35.1956 30.8336 36.8438C28.3668 38.4921 25.4667 39.3718 22.5 39.3718H7.5V24.3718ZM52.5 50.6218H37.5C34.8476 50.6188 32.2432 49.914 29.9513 48.5791C27.6593 47.2442 25.7613 45.3266 24.45 43.021C27.0181 42.7545 29.5034 41.9601 31.7498 40.6875C33.9963 39.4149 35.9555 37.6918 37.5044 35.6261C39.0533 33.5604 40.1585 31.1969 40.7507 28.6838C41.3428 26.1708 41.4091 23.5625 40.9453 21.0226C44.2342 21.7987 47.1647 23.6627 49.2619 26.3125C51.3591 28.9623 52.5001 32.2425 52.5 35.6218V50.6218Z" fill="url(#paint0_linear_6813_33099)"/>
<defs>
<linearGradient id="paint0_linear_6813_33099" x1="9.84677" y1="-9.60839" x2="62.5999" y2="-6.30143" gradientUnits="userSpaceOnUse">
<stop stop-color="#D77BE6"/>
<stop offset="0.346875" stop-color="#BE63E6"/>
<stop offset="1" stop-color="#6C38CC"/>
</linearGradient>
</defs>
</svg>