<svg xmlns="http://www.w3.org/2000/svg" width="24" height="24" viewBox="0 0 24 24" fill="none">
<path d="M12.0002 24C11.6714 24 11.3645 23.9118 11.0796 23.7574L8.1646 22.0155C7.72631 21.7731 7.94545 21.6849 8.07697 21.6408C8.66877 21.4423 8.77828 21.3982 9.39197 21.0455C9.45772 21.0014 9.54547 21.0234 9.61123 21.0674L11.8468 22.4125C11.9345 22.4566 12.044 22.4566 12.1097 22.4125L20.8551 17.3192C20.9421 17.2751 20.9868 17.1869 20.9868 17.0767V6.91226C20.9868 6.80197 20.9421 6.71378 20.8551 6.66969L12.1097 1.5985C12.0221 1.55441 11.9125 1.55441 11.8468 1.5985L3.10172 6.66969C3.01397 6.71378 2.97021 6.82408 2.97021 6.91226V17.0767C2.97021 17.1649 3.01397 17.2751 3.10172 17.3192L5.49071 18.7082C6.78384 19.3698 7.59479 18.5981 7.59479 17.8263V7.79415C7.59479 7.66187 7.70431 7.52959 7.85782 7.52959H8.97556C9.10707 7.52959 9.23858 7.63988 9.23858 7.79415V17.8263C9.23858 19.5681 8.29612 20.5824 6.65233 20.5824C6.14827 20.5824 5.75374 20.5824 4.63588 20.0312L2.33453 18.7082C1.76472 18.3776 1.41406 17.7601 1.41406 17.0987V6.93426C1.41406 6.27284 1.76472 5.65552 2.33453 5.32476L11.0796 0.231581C11.6276 -0.0771936 12.3728 -0.0771936 12.9207 0.231581L21.6661 5.32476C22.2355 5.65552 22.586 6.27284 22.586 6.93426V17.0987C22.586 17.7601 22.2355 18.3776 21.6661 18.7082L12.9207 23.8015C12.6577 23.9118 12.329 24 12.0002 24Z" fill="#FAFAFA"/>
<path d="M14.7296 17.0474C10.9121 17.0474 10.127 15.2708 10.127 13.7607C10.127 13.6275 10.2359 13.4943 10.3886 13.4943H11.5228C11.6537 13.4943 11.7628 13.5831 11.7628 13.7163C11.9372 14.8933 12.4389 15.4706 14.7512 15.4706C16.5832 15.4706 17.3687 15.0488 17.3687 14.0495C17.3687 13.472 17.1498 13.0501 14.2928 12.7614C11.9154 12.5171 10.4323 11.9842 10.4323 10.0522C10.4323 8.25347 11.9154 7.1875 14.4019 7.1875C17.1943 7.1875 18.568 8.16465 18.7424 10.2965C18.7424 10.363 18.7208 10.4297 18.6775 10.4963C18.633 10.5407 18.568 10.5852 18.5019 10.5852H17.3459C17.2376 10.5852 17.1282 10.4963 17.1065 10.3853C16.8443 9.16395 16.1683 8.76414 14.3801 8.76414C12.3735 8.76414 12.1335 9.47483 12.1335 10.0078C12.1335 10.6518 12.417 10.8517 15.1217 11.207C17.8042 11.5622 19.0696 12.073 19.0696 13.9828C19.0696 15.937 17.477 17.0474 14.7296 17.0474Z" fill="#FAFAFA"/>
</svg>