<svg xmlns="http://www.w3.org/2000/svg" width="53" height="48" viewBox="0 0 53 48" fill="none">
<path d="M52.0183 1.13785C51.7278 0.886995 51.3743 0.720159 50.996 0.655318C50.6177 0.590476 50.2289 0.630087 49.8714 0.769882L2.37299 19.3582C1.69983 19.6199 1.12992 20.0933 0.749065 20.707C0.368207 21.3207 0.197015 22.0415 0.261262 22.7609C0.325508 23.4803 0.621715 24.1593 1.10529 24.6958C1.58886 25.2323 2.23363 25.5972 2.94252 25.7355L15.2496 28.1519V41.8746C15.2471 42.622 15.4693 43.353 15.8871 43.9727C16.305 44.5925 16.8994 45.0724 17.5933 45.3503C18.2861 45.6332 19.048 45.7012 19.7799 45.5452C20.5118 45.3893 21.1799 45.0168 21.6972 44.4761L27.6316 38.3214L37.0464 46.5621C37.7257 47.1646 38.6017 47.498 39.5097 47.4996C39.9076 47.4993 40.303 47.4368 40.6816 47.3144C41.3002 47.1181 41.8566 46.7632 42.2954 46.2849C42.7341 45.8067 43.04 45.2218 43.1824 44.5886L52.6956 3.20269C52.7807 2.82945 52.7627 2.44009 52.6433 2.07634C52.524 1.71259 52.3079 1.38817 52.0183 1.13785ZM37.6886 9.57535L16.691 24.6128L5.06596 22.3324L37.6886 9.57535ZM18.9996 41.8746V30.7464L24.8097 35.8418L18.9996 41.8746ZM39.5144 43.7496L20.1363 26.7574L48.0269 6.76754L39.5144 43.7496Z" fill="url(#paint0_linear_6478_12638)"/>
<defs>
<linearGradient id="paint0_linear_6478_12638" x1="6.34486" y1="-14.0233" x2="59.0816" y2="-10.5853" gradientUnits="userSpaceOnUse">
<stop stop-color="#D77BE6"/>
<stop offset="0.346875" stop-color="#BE63E6"/>
<stop offset="1" stop-color="#6C38CC"/>
</linearGradient>
</defs>
</svg>